<?xml version="1.0" encoding="UTF-8" standalone="no"?>
<!-- Generator: Adobe Illustrator 22.1.0, SVG Export Plug-In . SVG Version: 6.00 Build 0)  -->

<svg
   version="1.1"
   id="logo"
   x="0px"
   y="0px"
   viewBox="0 0 255.47038 239.99999"
   xml:space="preserve"
   sodipodi:docname="lasalle-logo.svg"
   width="255.47038"
   height="240"
   inkscape:version="1.2.1 (9c6d41e410, 2022-07-14)"
   xmlns:inkscape="http://www.inkscape.org/namespaces/inkscape"
   xmlns:sodipodi="http://sodipodi.sourceforge.net/DTD/sodipodi-0.dtd"
   xmlns="http://www.w3.org/2000/svg"
   xmlns:svg="http://www.w3.org/2000/svg"><defs
   id="defs76" /><sodipodi:namedview
   id="namedview74"
   pagecolor="#ffffff"
   bordercolor="#666666"
   borderopacity="1.0"
   inkscape:showpageshadow="2"
   inkscape:pageopacity="0.0"
   inkscape:pagecheckerboard="0"
   inkscape:deskcolor="#d1d1d1"
   showgrid="false"
   inkscape:zoom="1.5769631"
   inkscape:cx="27.584667"
   inkscape:cy="181.36126"
   inkscape:window-width="1920"
   inkscape:window-height="1017"
   inkscape:window-x="-8"
   inkscape:window-y="-8"
   inkscape:window-maximized="1"
   inkscape:current-layer="g71" />
<style
   type="text/css"
   id="style2">
	.st0{fill:#CE0E2D;}
	.st1{fill:#001E61;}
	.st2{fill:#1D285C;}
</style>
<g
   id="g71"
   transform="translate(0,-1)">
	<g
   id="Group_1247_1_"
   transform="matrix(4.1811847,0,0,4.1811847,0,-3.1811847)">
		<path
   id="Path_477_1_"
   class="st0"
   d="m 50.7,50.6 4.4,-7.8 h -8.9 l -12,-21 -4.4,7.8 12,21 c 0,0 8.9,0 8.9,0 z" />
		<path
   id="Path_478_1_"
   class="st0"
   d="m 34.3,1 h -9 l 4.4,7.8 -12,20.8 h 9.1 l 12,-20.8 z" />
		<path
   id="Path_479_1_"
   class="st0"
   d="m 0,40.1 4.4,7.8 4.4,-7.8 H 32.7 L 28.3,32.3 H 4.4 Z" />
		<path
   id="Path_480_1_"
   class="st1"
   d="m 56.7,40.1 4.4,-7.8 h -9 L 40.3,11.4 35.9,19.2 47.9,40 h 8.8 z" />
		<path
   id="Path_481_1_"
   class="st1"
   d="m 22.3,1 h -8.9 l 4.4,7.8 -12,20.8 h 9 l 12,-20.8 z" />
		<path
   id="Path_482_1_"
   class="st1"
   d="m 5.9,50.6 4.4,7.8 4.4,-7.8 H 38.6 L 34.2,42.8 H 10.5 Z" />
	</g>
	
	
	
	
	<g
   id="g69">
		
		
	</g>
</g>
</svg>
